<svg xmlns="http://www.w3.org/2000/svg" width="40" height="40" fill="none" viewBox="0 0 40 40">
    <circle cx="20" cy="20" r="19.5" fill="#fff" stroke="#265FF0"/>
    <path fill="#265FF0" d="M25.54 28h-.159c-.047-.01-.094-.02-.142-.028-.632-.09-1.158-.553-1.321-1.161-.17-.63.046-1.297.573-1.681.19-.141.42-.23.607-.328h-6.814c.033.029.069.041.106.051.687.184 1.164.81 1.169 1.535.005.706-.476 1.346-1.155 1.533-.114.032-.231.053-.347.079h-.186c-.034-.009-.066-.02-.1-.025-.731-.098-1.307-.667-1.391-1.372-.09-.754.312-1.429 1.014-1.703.082-.033.168-.056.252-.084-.274-.029-.543-.018-.812-.03-.744-.035-1.337-.533-1.496-1.25-.157-.703.172-1.416.821-1.756.09-.047.095-.093.076-.175-.131-.583-.26-1.167-.39-1.75-.493-2.222-.989-4.443-1.479-6.667-.022-.103-.064-.122-.158-.122-.843.003-1.686-.007-2.528.006-.327.005-.56-.097-.68-.408v-.24c.108-.312.334-.426.655-.424 1.016.008 2.032.002 3.049.003.324 0 .516.15.588.464.114.497.232.992.33 1.492.03.152.087.185.231.185 4.203-.004 8.406-.003 12.608-.003h.147c.435.012.663.317.543.736-.698 2.45-1.398 4.897-2.104 7.344-.034.121-.12.237-.207.329-.111.116-.273.112-.426.112h-9.426c-.379 0-.625.206-.625.521.001.34.236.543.631.543H26.474c.344 0 .58.221.582.54.002.302-.243.523-.582.525l-.573.001c-.04 0-.08.005-.118.008.034.033.067.043.1.053.675.21 1.075.666 1.158 1.361.077.651-.191 1.165-.74 1.53-.23.152-.495.206-.76.256z"/>
</svg>
