<svg xmlns="http://www.w3.org/2000/svg" width="100" height="28" fill="none" viewBox="0 0 100 28">
    <path fill="#D9D9D9" d="M22.6 23.507l-3.579-.954-4.42.954-.8 3.28h9.6l-.801-3.28z"/>
    <path fill="#C8C5C9" d="M15 21.867l-.4 1.64h8l-.4-1.64H15z"/>
    <path fill="#D9D9D9" d="M35.4 0H1.8c-.211 0-.412.033-.6.093L.695 1.64v18.618c0 .906.805 1.64 1.8 1.64H35.4l1.697-.578c.066-.17.102-.354.102-.546V1.64C37.2.734 36.395 0 35.401 0z"/>
    <path fill="#fff" d="M35.4 20.227H1.8c-.332 0-.6-.245-.6-.547V1.64c0-.301.268-.546.6-.546h33.6c.331 0 .6.245.6.546v18.04c0 .302-.268.547-.6.547z"/>
    <path fill="#318BFE" d="M22.8 2.733H4.2c-.331 0-.6.245-.6.547v9.294c0 .302.269.546.6.546h18.6c.332 0 .6-.244.6-.546V3.28c0-.302-.268-.547-.6-.547z"/>
    <path fill="#fff" d="M15.29 8.032L11.697 9.85c-.403.204-.412-.062-.412-.482V6.383L12 6.054l3.04 1.538.25.44z"/>
    <path fill="#C8C5C9" d="M25.8 27.333H11.4c-.332 0-.6-.244-.6-.546 0-.303.268-.547.6-.547h14.4c.332 0 .6.244.6.547 0 .302-.268.546-.6.546z"/>
    <path fill="#D9D9D9" d="M33.6 6.56H27c-.331 0-.6-.245-.6-.547V3.28c0-.302.269-.547.6-.547h6.6c.331 0 .6.245.6.547v2.733c0 .302-.269.547-.6.547zM22.8 16.4H3.6c-.331 0-.6-.244-.6-.547 0-.302.268-.547.6-.547h19.2c.332 0 .6.245.6.547 0 .303-.268.547-.6.547zM5.4 18.587H3.6c-.331 0-.6-.245-.6-.547 0-.303.268-.547.6-.547h1.8c.332 0 .6.244.6.547 0 .302-.268.547-.6.547zM18.6 18.587H7.8c-.332 0-.6-.245-.6-.547 0-.303.268-.547.6-.547h10.8c.332 0 .6.244.6.547 0 .302-.268.547-.6.547z"/>
    <path fill="#D9D9D9" d="M2.4 21.32c-.663 0-1.2-.489-1.2-1.093V.093C.503.32 0 .927 0 1.64v19.134c0 .905.806 1.64 1.8 1.64h33.6c.782 0 1.45-.459 1.698-1.094H2.4z"/>
    <path fill="#fff" d="M15.29 7.719l-.25-.127-1.89.957C12.634 8.81 12 8.47 12 7.933v-1.88l-.302-.152c-.403-.204-.898.061-.898.481v3.636c0 .42.494.685.898.481l3.591-1.818c.415-.21.415-.752 0-.962z"/>
    <path fill="#D9D9D9" d="M33.6 13.12H27c-.331 0-.6-.245-.6-.547V9.84c0-.302.269-.547.6-.547h6.6c.331 0 .6.245.6.547v2.733c0 .303-.269.547-.6.547zM33.6 19.68H27c-.331 0-.6-.245-.6-.547V16.4c0-.302.269-.547.6-.547h6.6c.331 0 .6.245.6.547v2.733c0 .302-.269.547-.6.547z"/>
    <path fill="#333" d="M51.12 19h.98v-4.508h3.64v-.812H52.1v-3.654h4.312v-.812H51.12V19zm6.904 0h.98V8.64h-.98V19zm3.2 0h.98v-7.644h-.98V19zm.49-9.086c.392 0 .714-.308.714-.728s-.322-.714-.714-.714c-.392 0-.715.294-.715.714s.322.728.715.728zm3.675 3.122v-1.68h-.966v11.256h.966V17.32c.448.952 1.512 1.792 3.038 1.792 2.086 0 3.64-1.554 3.64-3.948s-1.554-3.92-3.64-3.92c-1.526 0-2.59.826-3.038 1.792zm5.684 2.128c0 1.932-1.232 3.094-2.842 3.094-1.554 0-2.842-1.176-2.842-3.08 0-1.904 1.288-3.08 2.842-3.08 1.61 0 2.842 1.12 2.842 3.066zM73.8 9.27V19h4.886v-1.288h-3.29V9.27H73.8zM80.02 19h1.597v-7.714H80.02V19zm.813-8.736c.56 0 1.008-.448 1.008-1.022 0-.574-.448-1.022-1.008-1.022-.574 0-1.022.448-1.022 1.022 0 .574.448 1.022 1.022 1.022zm1.97 1.022L85.727 19h1.904l2.94-7.714h-1.694l-2.184 6.286-2.184-6.286h-1.708zm12.224 1.218c1.19 0 2.127.756 2.156 1.946h-4.27c.168-1.218 1.035-1.946 2.114-1.946zm3.611 4.2h-1.722c-.293.602-.84 1.078-1.82 1.078-1.175 0-2.086-.77-2.198-2.044h5.895c.041-.266.055-.518.055-.784 0-2.268-1.553-3.794-3.751-3.794-2.282 0-3.85 1.554-3.85 3.976 0 2.422 1.638 3.99 3.85 3.99 1.89 0 3.108-1.078 3.541-2.422z"/>
</svg>
